<svg id="main" xmlns="http://www.w3.org/2000/svg" xmlns:xlink="http://www.w3.org/1999/xlink" viewBox="0 0 483.46 223.2"><defs><style>.cls-1,.cls-7{fill:none;}.cls-2{fill:#3b418b;}.cls-3{clip-path:url(#clip-path);}.cls-4{fill:url(#linear-gradient);}.cls-5{clip-path:url(#clip-path-2);}.cls-6{fill:url(#linear-gradient-2);}.cls-7{stroke:#1b1464;stroke-miterlimit:10;stroke-width:2px;}.cls-8{fill:#e25c23;}.cls-9{fill:#fff1e0;}.cls-10{fill:#9b6e50;}.cls-11{fill:#b54a24;}.cls-12{fill:#342f74;}.cls-13,.cls-14{fill:#231f20;}.cls-14{fill-rule:evenodd;}.cls-15{fill:#4b57aa;}</style><clipPath id="clip-path" transform="translate(-22.84 -136.2)"><path class="cls-1" d="M358.7,251.6l57.2-31a3,3,0,0,1,4.4,2.7V354a3,3,0,0,1-4.4,2.7l-19.3-10.6a3,3,0,0,1-1.6-2.7V267.9a3,3,0,0,0-4.4-2.7l-29.1,16.2a3,3,0,0,1-4.4-2.7V254.4A3.19,3.19,0,0,1,358.7,251.6Z"/></clipPath><linearGradient id="linear-gradient" x1="350.3" y1="872.55" x2="505.4" y2="872.55" gradientTransform="translate(0 -584)" gradientUnits="userSpaceOnUse"><stop offset="0" stop-color="#ff6f00"/><stop offset="1" stop-color="#ffa800"/></linearGradient><clipPath id="clip-path-2" transform="translate(-22.84 -136.2)"><path class="cls-1" d="M487.5,251.6l-57.2-31a3,3,0,0,0-4.4,2.7V354a3,3,0,0,0,4.4,2.7l19.3-10.6a3,3,0,0,0,1.6-2.7V310.7a3,3,0,0,1,4.4-2.7l10.2,5.6a3,3,0,0,0,4.4-2.8l-.2-20a3,3,0,0,0-1.6-2.7l-15.7-8.7a3,3,0,0,1-1.6-2.7v-8.8a3,3,0,0,1,4.4-2.7l29.1,16.2a3,3,0,0,0,4.4-2.7V254.4A2.92,2.92,0,0,0,487.5,251.6Z"/></clipPath><linearGradient id="linear-gradient-2" x1="351.2" y1="872.55" x2="506.3" y2="872.55" xlink:href="#linear-gradient"/></defs><g id="A"><path class="cls-2" d="M25.5,338.7l38.7-108s2-7.1,9.1-9.1c6.1-1.7,21.3-1.2,25.4-1.1a7.27,7.27,0,0,1,2.9.7c2.7,1.2,7.3,4.5,4.3,12.6C101.8,246,66.1,346.6,66.1,346.6s-4,11.6-12.2,10.6c-6.5,0-18.5.1-23.1.1a7.9,7.9,0,0,1-6.1-2.7c-1.8-2.2-2.9-6-.4-12.6Z" transform="translate(-22.84 -136.2)"/><path class="cls-2" d="M117.2,256.1,101,302a26.54,26.54,0,0,0,0,21.6c4.1,11.8,9.1,25.2,9.1,25.2a12.15,12.15,0,0,0,13.2,8.2c7.4-.1,25,0,25,0s9.8-1.1,5.7-14.3c-4.1-11.2-31.6-88.7-31.6-88.7S119.3,249,117.2,256.1Z" transform="translate(-22.84 -136.2)"/></g><g id="TF"><g class="cls-3"><path class="cls-4" d="M350.3,217.7H505.4V359.4H350.3Z" transform="translate(-22.84 -136.2)"/></g><g class="cls-5"><path class="cls-6" d="M351.2,217.7H506.3V359.4H351.2Z" transform="translate(-22.84 -136.2)"/></g></g><circle class="cls-7" cx="232.26" cy="145.6" r="38.7"/><g id="o_design" data-name="o design"><path class="cls-2" d="M185.7,265.5c-1.2-1.2-4.3-3.5-6.4,0s.4,7.1,2.7,7.1,7.1-1.2,9.5-1.2,13.5,0,15.7,1.2,8.1,2.3,8.7,0,2.9-6-1.8-8.3-23.7,2.3-23.7,2.3S187,266.7,185.7,265.5Z" transform="translate(-22.84 -136.2)"/><path class="cls-2" d="M201.2,283.3c-2.9,2.3-2.5,4.7-4.8,8.3a21.88,21.88,0,0,1-7.1,7.1c-4,2.6-6.2,2.4-7.1,4.8a5.44,5.44,0,0,0,1.2,6,4.48,4.48,0,0,0,3.5,1.2c.4,0,1.8-.3,3.5-2.3,2.3-2.6,1.9-4.3,3.5-7.1,1-1.6,2.3-2.6,4.8-4.8,4.2-3.5,5.6-3.4,7.1-6,.5-.8,2.2-3.4,1.2-6a3.58,3.58,0,0,0-2.3-2.3C203.2,281.8,201.9,282.8,201.2,283.3Z" transform="translate(-22.84 -136.2)"/><path class="cls-2" d="M189.3,277.4a5.63,5.63,0,0,1,3.5,7.1A5.38,5.38,0,0,1,188,288c-2.3.2-5.2-1.1-6-3.5s1-4.9,2.3-6C184.9,278.4,186.9,276.7,189.3,277.4Z" transform="translate(-22.84 -136.2)"/><path class="cls-2" d="M200,315.4c1.5,1.6,1.5,2.7,2.3,4.8,2.1,4.5,11,11.2,13.1,11.8,1.2.4,1.9.5,2.3,1.2,3.1,3.6,1.8,6.1,1.3,7.1-.7,1.2-2.1,1.8-4.6,1.4-.8.1-1.5-.6-2.5-1.4a14.32,14.32,0,0,1-3.5-4.8,14.7,14.7,0,0,0-3.3-6.6c-2.9-3.5-5-3.5-6.3-4.1s-1.6-.4-3.5-1.2c-2.1-.9-3-1.3-3.5-2.3a5.2,5.2,0,0,1,0-3.5,8,8,0,0,1,1.9-2.6C194.4,314,199.6,315.1,200,315.4Z" transform="translate(-22.84 -136.2)"/><path class="cls-2" d="M215.5,289.3c-1-.1-.8,3.5-3.5,7.1-3.3,4.3-7.1,3.5-8.3,7.1a5.86,5.86,0,0,0,1.2,6,4.52,4.52,0,0,0,4.8,1.2c1.1-.4,2-2.3,3.5-6,.7-1.7,1.3-3,2.3-6a16,16,0,0,0,1.2-3.5C217.1,292.4,216.4,289.4,215.5,289.3Z" transform="translate(-22.84 -136.2)"/><path class="cls-2" d="M226.1,310.7c-1.3.4-.7,2.6-2.3,6-.4.8-.3.4-2.3,3.5-2.2,3.3-2.4,4-2.3,4.8a4.25,4.25,0,0,0,2.3,3.5,4,4,0,0,0,3.5,0,3.91,3.91,0,0,0,2.3-2.3c.5-1,.3-1.7,0-4.8-.5-5-.3-5.5,0-6a8,8,0,0,0,1.2-2.3c.2-.8.1-1.1,0-1.2A2.15,2.15,0,0,0,226.1,310.7Z" transform="translate(-22.84 -136.2)"/><path class="cls-2" d="M232.1,329.7c-1.7.5-3,3.4-2.3,6,.4,1.4,1.6,3.3,3.5,3.5,2.3.3,4.1-2,4.8-3.5.9-2.3.2-5.4-1.2-6-.6-.2-.9,0-3.5,0Z" transform="translate(-22.84 -136.2)"/><path class="cls-2" d="M227.4,341.7c2.2.5,2.4,2.9,4.8,4.8a12.62,12.62,0,0,0,6,2.3c1.9.4,2.8.3,3.5,1.2a3,3,0,0,1,0,3.5,3.91,3.91,0,0,1-4.8,1.2c-1.9-.9-1.2-2.7-3.5-4.8a10.35,10.35,0,0,0-4.8-2.3c-1.6-.4-2.5-.3-3.5-1.2a3,3,0,0,1-1.2-2.3,2.75,2.75,0,0,1,2.3-2.3A2.7,2.7,0,0,1,227.4,341.7Z" transform="translate(-22.84 -136.2)"/><path class="cls-2" d="M245.2,334.5c.9,1.3,1.3,1.8,1.2,2.3-.2,1.1-1.5,1.1-2.3,2.3a4.82,4.82,0,0,0,0,4.8,4.85,4.85,0,0,0,8.3,0,4.47,4.47,0,0,0,0-3.5c-.5-1.4-1.1-1.5-2.3-3.5a10.1,10.1,0,0,1-1.2-2.3c-.4-1.8.7-2.4,1.2-6,.2-1.4.2-2,0-2.3a4.09,4.09,0,0,0-2.3-2.3,4.47,4.47,0,0,0-4.8,1.2c-1.8,2.2-.2,5.6,0,6S243.9,332.6,245.2,334.5Z" transform="translate(-22.84 -136.2)"/><path class="cls-2" d="M195.2,251.3c1.6.6,2.2,2.6,2.3,3.5a4.7,4.7,0,0,1,0,3.5c-1.1,2.3-4.4,2.3-4.8,2.3a4.74,4.74,0,0,1-3.5-1.2,4.39,4.39,0,0,1-1.2-4.8c.4-1,1.1-1.5,2.3-2.3a6.32,6.32,0,0,1,2.3-1.2A5.76,5.76,0,0,1,195.2,251.3Z" transform="translate(-22.84 -136.2)"/><path class="cls-2" d="M189.3,238.1c1.8-1.4,4.5-.1,4.8,0,.9.4,1.2.9,3.5,3.5,2.7,3.1,3.2,3.4,3.5,3.5a22.37,22.37,0,0,0,4.8,1.2c2,.4,2.7.5,3.5,1.2a3.45,3.45,0,0,1,1.2,2.3c.1,1.7-1.1,3.4-2.3,3.5-.9.1-1.2-.6-3.5-2.3-1.4-1-1.2-.7-3.5-2.3-2.8-2-2.8-2.2-3.5-2.3-2-.6-2.5.5-4.8,0a6.35,6.35,0,0,1-3.5-2.3,5.17,5.17,0,0,1-1.2-3.5A2.82,2.82,0,0,1,189.3,238.1Z" transform="translate(-22.84 -136.2)"/><path class="cls-2" d="M217.8,246.5c-1.3.2-2,2.3-2.3,3.5-.5,1.5-1.1,3.4,0,4.8a3.33,3.33,0,0,0,2.3,1.2,4,4,0,0,0,3.5-1.2,3.76,3.76,0,0,0,1.2-3.5,6.2,6.2,0,0,0-1.2-2.3h0C221.4,248.8,219.4,246.3,217.8,246.5Z" transform="translate(-22.84 -136.2)"/><path class="cls-2" d="M203.5,258.4a2.47,2.47,0,0,0,3.5,3.5,2.12,2.12,0,0,0,0-2.3,2.58,2.58,0,0,0-1.2-1.2A2.1,2.1,0,0,0,203.5,258.4Z" transform="translate(-22.84 -136.2)"/><path class="cls-2" d="M182.1,294.1a2.65,2.65,0,0,0-2.3,2.3c-.3,1-.3,2.8,1.2,3.5a2.6,2.6,0,0,0,3.5-1.2,2.53,2.53,0,0,0,0-2.3C184.5,296.2,183.7,294.1,182.1,294.1Z" transform="translate(-22.84 -136.2)"/><path class="cls-2" d="M219.1,306c-.7.4-1.5,1.4-1.2,2.3a1.8,1.8,0,0,0,1.2,1.2,2.08,2.08,0,0,0,2.3-1.2c.4-.6.7-1.8,0-2.3C220.8,305.3,219.7,305.7,219.1,306Z" transform="translate(-22.84 -136.2)"/><path class="cls-2" d="M212,319.1a2.6,2.6,0,0,0-1.2,3.5,3.07,3.07,0,0,0,2.3,1.2c1.3.2,3.2-.1,3.5-1.2s-.8-2-1.2-2.3a4,4,0,0,0-2.3-1.2A2,2,0,0,0,212,319.1Z" transform="translate(-22.84 -136.2)"/><path class="cls-2" d="M196.4,331a3.17,3.17,0,0,0-1.2,3.5c.3,1,1.1,2.3,2.3,2.3a2.86,2.86,0,0,0,2.3-1.2c.9-.9,1.8-2.6,1.2-3.5a4.1,4.1,0,0,0-2.3-1.2h0C198.8,331,197.3,330.5,196.4,331Z" transform="translate(-22.84 -136.2)"/><path class="cls-2" d="M217.8,347.6a2.69,2.69,0,0,0-1.2,3.5c.5.9,1.6,1.5,2.3,1.2.4-.1.7-.5,1.2-1.2.9-1.2,1.4-1.9,1.2-2.3-.3-.9-1.8-1.1-2.3-1.2A1.65,1.65,0,0,0,217.8,347.6Z" transform="translate(-22.84 -136.2)"/><path class="cls-8" d="M291.1,248.2c-.7.6-1.9,3.6-.7,6.5.3.7,1.3,3.4,3.5,3.5a3.72,3.72,0,0,0,3.5-2.3,3.62,3.62,0,0,0,0-2.3c-.3-1.7-1.1-2.8-2.3-4.8C293.6,246.6,291.9,247.6,291.1,248.2Z" transform="translate(-22.84 -136.2)"/><path class="cls-8" d="M305.9,246.5c-.2,0-2.9.5-3.5,2.3s1.1,3.4,1.2,3.5a3.07,3.07,0,0,0,3.4.7c.3-.1.6.3,2.5-1.9a12,12,0,0,1,1.2-1.2,38.94,38.94,0,0,1,5.8-3c2.4-.9,4.9-.8,5.5-1.2a3.79,3.79,0,0,0,1.9-2.9,4,4,0,0,0-1.2-3.5,5.51,5.51,0,0,0-2.3-1.2,5.39,5.39,0,0,0-4.8,1.2c-1.4,1.4-2.1,4-2.9,4.9C311.3,245.4,308.1,246.2,305.9,246.5Z" transform="translate(-22.84 -136.2)"/><path class="cls-8" d="M314.3,253.6c-1.1,1.9,0,4.5,1.2,6,.5.6,2.2,2.6,4.8,2.3a5.22,5.22,0,0,0,3.5-2.3,5,5,0,0,0,0-4.8,4.71,4.71,0,0,0-2.3-2.3,5.86,5.86,0,0,0-6,0A2.08,2.08,0,0,0,314.3,253.6Z" transform="translate(-22.84 -136.2)"/><path class="cls-8" d="M307.2,259.6a2.47,2.47,0,0,0-2.3,2.3,2.56,2.56,0,0,0,2.3,2.3,2.22,2.22,0,0,0,2.3-1.2,2.35,2.35,0,0,0,0-2.3A2.68,2.68,0,0,0,307.2,259.6Z" transform="translate(-22.84 -136.2)"/><path class="cls-8" d="M298.7,265.5c-2.4.6-3.5,3.4-3.5,3.5-1,2.7.2,6.2,2.3,7.1s4.5-.5,6-1.2c2-1,2.6-2.1,4.8-2.3.4-.1,3.6-.2,6.3-.2a48.83,48.83,0,0,1,6.8.2c2.1.3,2.1.7,4.8,1.2,2.3.4,3.6.6,4.8,0a4.25,4.25,0,0,0,2.3-3.5,4.41,4.41,0,0,0-1.2-3.5,4.94,4.94,0,0,0-2.3-1.2,7.67,7.67,0,0,0-4.8,1.2,25.84,25.84,0,0,1-10.6,2.7,36.12,36.12,0,0,1-10.9-2.7A6.29,6.29,0,0,0,298.7,265.5Z" transform="translate(-22.84 -136.2)"/><path class="cls-8" d="M321.4,279.8c-2,.9-3,3.6-2.3,6a5,5,0,0,0,3.5,3.5,5.69,5.69,0,0,0,4.8-1.2c.7-.5,2.4-1.8,2.3-3.5s-1.6-2.9-2.3-3.5a7.06,7.06,0,0,0-2.3-1.2A4.66,4.66,0,0,0,321.4,279.8Z" transform="translate(-22.84 -136.2)"/><path class="cls-8" d="M329.8,296.5a2.75,2.75,0,0,0-1.2,2.3c0,.8.3,2,1.2,2.3,1.3.6,3.4-.7,3.5-2.3a2.29,2.29,0,0,0-1.2-2.3A2.35,2.35,0,0,0,329.8,296.5Z" transform="translate(-22.84 -136.2)"/><path class="cls-8" d="M309.5,283.3c2.7.4,4.3,3.7,6,7.1,2,4,1,4.1,2.3,6,2.5,3.4,7.3,5.5,8.3,6a8.19,8.19,0,0,1,3.5,2.3,4.56,4.56,0,0,1,1.2,3.5c-.4,2.3-2.9,3.3-3.5,3.5s-2.9,1.2-4.8,0c-1.4-.9-1.8-2.3-2.3-4.8-.8-2.9-.3-3.5-1.2-4.8-1.1-1.4-2-.9-3.5-2.3-1.6-1.6-1.1-2.3-2.3-3.5-2-1.9-3.7-.6-6-2.3a6.63,6.63,0,0,1-2.3-4.8c-.1-1-.4-3.2,1.2-4.8A4.51,4.51,0,0,1,309.5,283.3Z" transform="translate(-22.84 -136.2)"/><path class="cls-8" d="M292.9,292.8c-.7,7.9,6.7,13.7,9.5,19.1a2.66,2.66,0,0,0,1.2,1.2c1.2.5,2.7-.4,3.5-1.2,1.7-1.6,1.7-4.2,1.2-6a7.72,7.72,0,0,0-2.3-3.5c-4.2-4.2-6.8-3-8.3-6-.8-1.5-.7-3-2.3-6-.4-.6-.8-1.3-1.2-1.2C293.2,289.4,292.9,292.5,292.9,292.8Z" transform="translate(-22.84 -136.2)"/><path class="cls-8" d="M313,315.4c-2.3,1.7-1.9,3.3-4.8,8.3-1.5,2.5-2.2,3.8-3.5,4.8-2,1.5-6.2,3.9-8,5a5.79,5.79,0,0,0-2.4,2.2c-1.4,1.9-.3,5.5,0,5.9a6.69,6.69,0,0,0,3.3,2.4c2.1.6,4.9-1.3,6-3.5s2.2-7.9,4.5-10.2c2.5-2.3,6.8-3.5,8.6-4.1a5.89,5.89,0,0,0,3.5-2.3c.8-1.4.5-2.8,0-4.8-.5-2.3-.9-4.1-2.3-4.8C315.9,313.4,313.4,315.2,313,315.4Z" transform="translate(-22.84 -136.2)"/><path class="cls-8" d="M283.3,311.9c-.8,1.7,1.9,3.1,2.3,7.1a19.7,19.7,0,0,1,0,3.5c-.1,3.8-.7,4.7,0,6a4.12,4.12,0,0,0,3.5,2.3c2.3.1,4.1-1.8,4.8-3.5,1.1-3.3-2-6.8-2.3-7.1-1.6-1.8-2.7-1.7-3.5-3.5-.2-.4-.5-1.5-1.2-3.5-.5-1.6-.7-2.2-1.2-2.3A2,2,0,0,0,283.3,311.9Z" transform="translate(-22.84 -136.2)"/><path class="cls-8" d="M297.6,319.1a3.47,3.47,0,0,0-2.3,4.8,3.18,3.18,0,0,0,3.5,1.2,3,3,0,0,0,2.3-2.3A3.27,3.27,0,0,0,297.6,319.1Z" transform="translate(-22.84 -136.2)"/><path class="cls-8" d="M291.6,307.1a2.47,2.47,0,0,0,3.5,3.5c.8-1.1,0-2.9-1.2-3.5A2.34,2.34,0,0,0,291.6,307.1Z" transform="translate(-22.84 -136.2)"/><path class="cls-8" d="M277.3,329.7c-2.5,0-5.8,3.8-4.8,7.1.9,2.8,4.5,3.5,4.8,3.5,3.2.5,6.9-1.4,7.1-3.5.1-1.4-1.1-2.4-3.5-4.8C279.2,330.6,278.4,329.8,277.3,329.7Z" transform="translate(-22.84 -136.2)"/><path class="cls-8" d="M261.9,325c-1.3,1.6-.5,4.2,0,6s.9,2,1.2,3.5a6.92,6.92,0,0,1,0,3.5c-1,2.8-4.4,2.6-4.8,4.8-.3,1.9,2.3,3.4,2.3,3.5,1.7,1.1,4.4,1.5,6,0s1.3-4.3,1.2-4.8c-.2-1.4-.7-1.4-1.2-3.5s-.3-3,0-3.5.5-.5,1.2-1.2a7.79,7.79,0,0,0,2.3-3.5,5.15,5.15,0,0,0,0-3.5,4.71,4.71,0,0,0-2.3-2.3,5.2,5.2,0,0,0-3.5,0A3.15,3.15,0,0,0,261.9,325Z" transform="translate(-22.84 -136.2)"/><path class="cls-8" d="M282.1,344c-1.8,1.4-.8,3.8-2.3,4.8-1,.6-1.5-.3-3.5,0a8.27,8.27,0,0,0-4.8,2.3,3.68,3.68,0,0,0-1.2,2.3,3.08,3.08,0,0,0,1.2,2.3c.8.8,2.3,1.7,3.5,1.2s.9-1.8,2.3-3.5a7.17,7.17,0,0,1,3.5-2.3c2.2-.9,2.9-.2,4.8-1.2.8-.5,2-1.1,2.3-2.3a3.64,3.64,0,0,0-5.8-3.6Z" transform="translate(-22.84 -136.2)"/><path class="cls-8" d="M290.4,350a3,3,0,0,0,0,2.3c.2,1,.5,2.2,1.2,2.3,1.2.4,3.5-1.5,3.5-3.5,0-.1,0-1.8-1.2-2.3A2.69,2.69,0,0,0,290.4,350Z" transform="translate(-22.84 -136.2)"/><path class="cls-8" d="M313,332.2a3.45,3.45,0,0,0-1.2,4.8,2.68,2.68,0,0,0,2.3,1.2,2.74,2.74,0,0,0,2.3-2.3c.3-1.2.1-2.9-1.2-3.5A1.81,1.81,0,0,0,313,332.2Z" transform="translate(-22.84 -136.2)"/></g><path class="cls-9" d="M276.38,288.09l-1.08-15.87L268,276.7c-3.61-.65-4.54-.65-7.36-2a5.51,5.51,0,0,0-4.83.36c-1.59-1.66-11.83.79-13,1.3-3.1-.94-7.64-4.48-7.64-4.48l-1.44,18,2,.5a19.51,19.51,0,0,0,.72,2.09c-2,2.46.36,5.34,2.52,4.4-.94,2.46,1.59,4.76,3.61,3.18-.29,2.31,2.09,4,3.89,2.38-.79,2.74,2.31,4.76,4.12,2.52a16,16,0,0,0,3.6,2,2.71,2.71,0,0,0,3.54-3.17c2.09,2.45,5.26.07,4.54-2.6,2.31,1.8,5.2-1.23,3.68-4,2.6,1.52,4.91-2.52,2.38-5.19l8-3.83" transform="translate(-22.84 -136.2)"/><path class="cls-10" d="M239.16,290.62A2.87,2.87,0,0,1,240,295l-.65.72a2.42,2.42,0,0,1-2.09,1.08,1.83,1.83,0,0,0,1.73,0,2.08,2.08,0,0,1,.5-.86l.65-.72a3.2,3.2,0,0,1,1.16-.94,2.6,2.6,0,0,0-2.09-3.68" transform="translate(-22.84 -136.2)"/><path class="cls-10" d="M249.26,299.28c1.37.36,2.45,2.16,1.37,4.18l-.51.87a2.79,2.79,0,0,1-2,1.51,2.32,2.32,0,0,0,2.74-1.37l.51-.79c1.23-2.53-.43-4.55-2.16-4.4" transform="translate(-22.84 -136.2)"/><path class="cls-10" d="M243,298.63l1.37-2.17a2.61,2.61,0,0,0-2.16-2.38,2.87,2.87,0,0,1,.79,4.4l-.65.72a2.63,2.63,0,0,1-2.16,1.16,2.11,2.11,0,0,0,2.3-.29,4.93,4.93,0,0,1,.51-1.44" transform="translate(-22.84 -136.2)"/><path class="cls-10" d="M246.8,294.66A2.83,2.83,0,0,1,248,299l-1.66,2.59a2.44,2.44,0,0,1-2,1.3,2.45,2.45,0,0,0,2.81-1.22l1.66-2.6c1.37-2.31-.22-4.47-1.95-4.4" transform="translate(-22.84 -136.2)"/><path class="cls-10" d="M258.42,296.82c.07,0,1.15-.14,1.51-.14-1.3-1.3-3.39-.29-4.62-.94a2.84,2.84,0,0,0,2.89,1.16l2.09,2.74a3,3,0,0,1-1.51,5c2,.65,3.89-1.37,3.24-3.6-.07-.15-3.6-4.19-3.6-4.19" transform="translate(-22.84 -136.2)"/><path class="cls-10" d="M260.58,291.77a13.68,13.68,0,0,1,2.45-.28c-1.29-1.09-3.31-.08-4.61-.94a2,2,0,0,0,2,1.15l4,4.62a3.09,3.09,0,0,1-1.3,5.12c2.09.65,4.11-2.09,2.81-4.47-.94-.29-5.41-5.2-5.41-5.2" transform="translate(-22.84 -136.2)"/><path class="cls-10" d="M257.77,301.87c-1.3-1.08-3.18-.29-4-.79.43,1.23,2.09.94,2.16.94a3,3,0,0,1-1.94,4.83,2.71,2.71,0,0,0,3.53-3.17l-1.3-1.66a9.3,9.3,0,0,1,1.52-.15" transform="translate(-22.84 -136.2)"/><path class="cls-10" d="M275.37,286.58s-1.52,3.1-7.29,4.76a39.22,39.22,0,0,0-4.4-4.54c1.23-.29,1.88-1.23,2.82-1.37-.36-.37-1.59-.15-2.53.14-1.73.65-5.77-2.16-5.77-2.16l-3.32.43c-2.38,2.31-7.43,3.53-7.72,0-.14-2.45,5.2-4.11,6.86-5.7,2.09-2,4-4.55,7.35-2.81,2.82,1.37,4,1.29,7.8,2a5.07,5.07,0,0,1,3.17,2.16,4.35,4.35,0,0,0-3.32-2.89l6.13-2.88.07-1.52-7.28,4.12c-3.32-.51-4.55-.51-7.29-1.88a4.18,4.18,0,0,0-4.33.07,5.14,5.14,0,0,0-4.11-.79c-2.45.79-6.42.86-9.88,2.31a10.56,10.56,0,0,0,1.66.36c3.39-1.08,7-.94,8.66-1.59a4.22,4.22,0,0,1,2.74.43c-.72.65-1.3,1.3-2,2-1.66,1.59-6.78,3.9-6.42,6.78.14,1.38,2.09,5.13,8.51.94l2.74-.36a33.46,33.46,0,0,1,9.67,7.79c1.87,2.09.72,4.4-1.16,4.91,2.38.43,4.4-2.89,2.09-5.2l5.56-2.95,1-2.6" transform="translate(-22.84 -136.2)"/><path class="cls-11" d="M273.78,273.09l2.89,15-2.38,1.09c-1.23-3.25-3.32-11.62-2.89-15.37l2.38-.72" transform="translate(-22.84 -136.2)"/><path class="cls-10" d="M236.7,292.13a17.82,17.82,0,0,1-.72-2.45l-2.16-1.51-.22,1.66,2,.5a8.23,8.23,0,0,0,.86,2.09l.29-.29" transform="translate(-22.84 -136.2)"/><path class="cls-12" d="M232.3,289.54l4.76-16.38,2.31,1.3c.29,2.45-3.82,13.85-5.34,15.51l-1.73-.43" transform="translate(-22.84 -136.2)"/><path class="cls-8" d="M273.71,273c-.72.43,1.88,15.58,2.89,15.14,3.31-1.51,15.79-.79,15.79-.79,1.09-8.37-1-20.34-4.76-24.45-.14.07-8.29,6.78-13.92,10.1" transform="translate(-22.84 -136.2)"/><path class="cls-2" d="M237.06,273c.73.43-3.68,17-4.76,16.59-3.32-1.52-14.06-1.37-14.06-1.37-2.75-5.49.79-21.57,4.68-25.47" transform="translate(-22.84 -136.2)"/><g id="cap"><path class="cls-2" d="M255.1,219.2a36.06,36.06,0,0,1-11.8-1.9l-33.5-12.2c-.9-.4-13.6-5.1-16-1.4a2.89,2.89,0,0,0-.4,1.4v19c0,5.8,4.6,12.5,10.3,14.8l40.5,16.7c5.6,2.3,14.9,2.3,20.5,0l41-16.8c5.6-2.3,10.3-8.9,10.3-14.8V205.1a3.86,3.86,0,0,0-.6-2.2c-2-2.7-9-1.7-17.5,2.2-9.9,4-19.8,7.9-29.7,11.8A34.85,34.85,0,0,1,255.1,219.2Z" transform="translate(-22.84 -136.2)"/><path id="cap-2" data-name="cap" class="cls-2" d="M163.4,181.8l80.8,29.4c5.7,2.1,15.1,1.9,20.7-.3l77.2-30.7v45.4l-3.6,14.5,1.7.5,2.8-7.3.6,7.3h1.9V229.7l3.2,10.6,1.4-.5-4-14.4v-47H346c3.3-2.1,2.6-4.9-2.4-6.6l-78.5-26.4c-5.8-1.9-15.3-1.9-21,.2l-80.7,28.7c-5.8,2-5.8,5.3,0,7.5Z" transform="translate(-22.84 -136.2)"/><circle class="cls-2" cx="321.46" cy="88" r="4"/><polygon class="cls-2" points="136.26 35.6 136.26 42.1 144.66 42.3 140.46 34.8 136.26 35.6"/><polygon class="cls-2" points="325.26 33.1 325.26 39.5 318.86 39.1 320.26 32.6 325.26 33.1"/><path class="cls-2" d="M163.6,176.2l80.9,29.4c5.7,2.1,15.1,1.9,20.7-.3l81.2-32.6c3.3-2.1,2.6-4.9-2.4-6.6l-78.5-26.4c-5.8-1.9-15.3-1.9-21,.2l-80.7,28.7c-5.9,2.2-5.9,5.5-.2,7.6Z" transform="translate(-22.84 -136.2)"/><rect class="cls-1" x="163.24" y="174.91" width="4.5" height="4" transform="translate(-80.18 135.74) rotate(-70.01)"/><rect class="cls-13" x="166.5" y="177.12" width="0.5" height="0.7" transform="translate(-79.88 137.29) rotate(-70.01)"/><rect class="cls-13" x="165.22" y="176.6" width="0.5" height="0.7" transform="translate(-80.23 135.75) rotate(-70.01)"/><rect class="cls-13" x="164" y="176.2" width="0.5" height="0.7" transform="translate(-80.66 134.34) rotate(-70.01)"/><rect class="cls-1" x="167.05" y="176.28" width="4.5" height="4" transform="translate(-78.95 140.22) rotate(-70.01)"/><rect class="cls-13" x="170.31" y="178.49" width="0.5" height="0.7" transform="translate(-78.66 141.77) rotate(-70.01)"/><rect class="cls-13" x="169.06" y="178" width="0.4" height="0.7" transform="translate(-79.06 140.23) rotate(-70.01)"/><rect class="cls-13" x="167.72" y="177.53" width="0.5" height="0.7" transform="translate(-79.46 138.71) rotate(-70.01)"/><rect class="cls-1" x="170.83" y="177.74" width="4.5" height="4" transform="translate(-77.84 144.73) rotate(-70.01)"/><rect class="cls-13" x="174.05" y="179.87" width="0.4" height="0.7" transform="translate(-77.52 146.15) rotate(-70.01)"/><rect class="cls-13" x="172.8" y="179.42" width="0.5" height="0.7" transform="translate(-77.89 144.73) rotate(-70.01)"/><rect class="cls-13" x="171.56" y="178.94" width="0.4" height="0.7" transform="translate(-78.29 143.19) rotate(-70.01)"/><rect class="cls-1" x="174.64" y="179.1" width="4.5" height="4" transform="translate(-76.62 149.21) rotate(-70.01)"/><rect class="cls-13" x="177.84" y="181.19" width="0.5" height="0.7" transform="translate(-76.25 150.62) rotate(-70.01)"/><rect class="cls-13" x="176.61" y="180.79" width="0.5" height="0.7" transform="translate(-76.67 149.21) rotate(-70.01)"/><rect class="cls-13" x="175.34" y="180.27" width="0.5" height="0.7" transform="translate(-77.02 147.67) rotate(-70.01)"/><rect class="cls-1" x="178.36" y="180.43" width="4.5" height="4" transform="translate(-75.42 153.58) rotate(-70.01)"/><rect class="cls-13" x="181.65" y="182.56" width="0.5" height="0.7" transform="translate(-75.02 155.1) rotate(-70.01)"/><rect class="cls-13" x="180.33" y="182.12" width="0.5" height="0.7" transform="translate(-75.47 153.58) rotate(-70.01)"/><rect class="cls-13" x="179.15" y="181.64" width="0.5" height="0.7" transform="translate(-75.8 152.15) rotate(-70.01)"/><rect class="cls-1" x="182.17" y="181.8" width="4.5" height="4" transform="translate(-74.2 158.06) rotate(-70.01)"/><rect class="cls-13" x="185.42" y="184.02" width="0.5" height="0.7" transform="translate(-73.91 159.61) rotate(-70.01)"/><rect class="cls-13" x="184.14" y="183.49" width="0.5" height="0.7" transform="translate(-74.25 158.06) rotate(-70.01)"/><rect class="cls-13" x="182.83" y="183.06" width="0.5" height="0.7" transform="translate(-74.71 156.55) rotate(-70.01)"/><rect class="cls-1" x="185.98" y="183.16" width="4.5" height="4" transform="translate(-72.97 162.54) rotate(-70.01)"/><rect class="cls-13" x="189.13" y="185.34" width="0.5" height="0.7" transform="translate(-72.71 163.97) rotate(-70.01)"/><rect class="cls-13" x="187.95" y="184.86" width="0.5" height="0.7" transform="translate(-73.03 162.54) rotate(-70.01)"/><rect class="cls-13" x="186.64" y="184.42" width="0.5" height="0.7" transform="translate(-73.49 161.02) rotate(-70.01)"/><rect class="cls-1" x="189.75" y="184.62" width="4.5" height="4" transform="translate(-71.86 167.05) rotate(-70.01)"/><rect class="cls-13" x="192.98" y="186.75" width="0.4" height="0.7" transform="translate(-71.54 168.47) rotate(-70.01)"/><rect class="cls-13" x="191.73" y="186.32" width="0.5" height="0.7" transform="translate(-71.92 167.05) rotate(-70.01)"/><rect class="cls-13" x="190.48" y="185.83" width="0.4" height="0.7" transform="translate(-72.31 165.51) rotate(-70.01)"/><rect class="cls-1" x="193.47" y="185.95" width="4.5" height="4" transform="translate(-70.67 171.41) rotate(-70.01)"/><rect class="cls-13" x="196.75" y="188.07" width="0.5" height="0.7" transform="translate(-70.26 172.93) rotate(-70.01)"/><rect class="cls-13" x="195.45" y="187.65" width="0.5" height="0.7" transform="translate(-70.72 171.42) rotate(-70.01)"/><rect class="cls-13" x="194.26" y="187.15" width="0.5" height="0.7" transform="translate(-71.04 169.98) rotate(-70.01)"/><rect class="cls-1" x="197.28" y="187.32" width="4.5" height="4" transform="translate(-69.44 175.89) rotate(-70.01)"/><rect class="cls-13" x="200.56" y="189.44" width="0.5" height="0.7" transform="translate(-69.04 177.41) rotate(-70.01)"/><rect class="cls-13" x="199.28" y="189.05" width="0.4" height="0.7" transform="translate(-69.55 175.91) rotate(-70.01)"/><rect class="cls-13" x="197.98" y="188.48" width="0.5" height="0.7" transform="translate(-69.84 174.35) rotate(-70.01)"/><rect class="cls-1" x="201.09" y="188.69" width="4.5" height="4" transform="translate(-68.22 180.37) rotate(-70.01)"/><rect class="cls-13" x="204.25" y="190.87" width="0.5" height="0.7" transform="translate(-67.96 181.82) rotate(-70.01)"/><rect class="cls-13" x="203.06" y="190.37" width="0.5" height="0.7" transform="translate(-68.27 180.37) rotate(-70.01)"/><rect class="cls-13" x="201.75" y="189.95" width="0.5" height="0.7" transform="translate(-68.73 178.87) rotate(-70.01)"/><rect class="cls-1" x="204.9" y="190.05" width="4.5" height="4" transform="translate(-67 184.85) rotate(-70.01)"/><rect class="cls-13" x="208.06" y="192.24" width="0.5" height="0.7" transform="translate(-66.74 186.3) rotate(-70.01)"/><rect class="cls-13" x="206.87" y="191.74" width="0.5" height="0.7" transform="translate(-67.05 184.85) rotate(-70.01)"/><rect class="cls-13" x="205.56" y="191.32" width="0.5" height="0.7" transform="translate(-67.51 183.34) rotate(-70.01)"/><rect class="cls-1" x="208.58" y="191.48" width="4.5" height="4" transform="translate(-65.91 189.25) rotate(-70.01)"/><rect class="cls-13" x="211.9" y="193.65" width="0.4" height="0.7" transform="translate(-65.57 190.79) rotate(-70.01)"/><rect class="cls-13" x="210.59" y="193.08" width="0.5" height="0.7" transform="translate(-65.86 189.23) rotate(-70.01)"/><rect class="cls-13" x="209.38" y="192.68" width="0.5" height="0.7" transform="translate(-66.29 187.82) rotate(-70.01)"/><rect class="cls-1" x="212.39" y="192.84" width="4.5" height="4" transform="translate(-64.69 193.73) rotate(-70.01)"/><rect class="cls-13" x="215.71" y="195.01" width="0.4" height="0.7" transform="translate(-64.34 195.26) rotate(-70.01)"/><rect class="cls-13" x="214.37" y="194.54" width="0.5" height="0.7" transform="translate(-64.74 193.74) rotate(-70.01)"/><rect class="cls-13" x="213.19" y="194.05" width="0.5" height="0.7" transform="translate(-65.06 192.3) rotate(-70.01)"/><rect class="cls-1" x="216.2" y="194.21" width="4.5" height="4" transform="translate(-63.46 198.21) rotate(-70.01)"/><rect class="cls-13" x="219.39" y="196.29" width="0.5" height="0.7" transform="translate(-63.09 199.61) rotate(-70.01)"/><rect class="cls-13" x="218.21" y="195.95" width="0.4" height="0.7" transform="translate(-63.57 198.23) rotate(-70.01)"/><rect class="cls-13" x="216.9" y="195.37" width="0.5" height="0.7" transform="translate(-63.86 196.66) rotate(-70.01)"/><rect class="cls-1" x="220.01" y="195.57" width="4.5" height="4" transform="translate(-62.24 202.69) rotate(-70.01)"/><rect class="cls-13" x="223.2" y="197.66" width="0.5" height="0.7" transform="translate(-61.86 204.09) rotate(-70.01)"/><rect class="cls-13" x="221.99" y="197.27" width="0.5" height="0.7" transform="translate(-62.3 202.69) rotate(-70.01)"/><rect class="cls-13" x="220.71" y="196.88" width="0.4" height="0.7" transform="translate(-62.81 201.19) rotate(-70.01)"/><rect class="cls-1" x="223.73" y="196.91" width="4.5" height="4" transform="translate(-61.05 207.06) rotate(-70.01)"/><rect class="cls-13" x="226.98" y="199.12" width="0.5" height="0.7" transform="translate(-60.75 208.6) rotate(-70.01)"/><rect class="cls-13" x="225.7" y="198.59" width="0.5" height="0.7" transform="translate(-61.1 207.05) rotate(-70.01)"/><rect class="cls-13" x="224.48" y="198.2" width="0.5" height="0.7" transform="translate(-61.53 205.65) rotate(-70.01)"/><rect class="cls-1" x="227.54" y="198.27" width="4.5" height="4" transform="translate(-59.82 211.54) rotate(-70.01)"/><rect class="cls-13" x="230.79" y="200.48" width="0.5" height="0.7" transform="translate(-59.53 213.08) rotate(-70.01)"/><rect class="cls-13" x="229.51" y="199.96" width="0.5" height="0.7" transform="translate(-59.87 211.53) rotate(-70.01)"/><rect class="cls-13" x="228.3" y="199.57" width="0.5" height="0.7" transform="translate(-60.31 210.14) rotate(-70.01)"/><rect class="cls-1" x="231.31" y="199.73" width="4.5" height="4" transform="translate(-58.71 216.04) rotate(-70.01)"/><rect class="cls-13" x="234.54" y="201.86" width="0.4" height="0.7" transform="translate(-58.39 217.47) rotate(-70.01)"/><rect class="cls-13" x="233.29" y="201.42" width="0.5" height="0.7" transform="translate(-58.76 216.04) rotate(-70.01)"/><rect class="cls-13" x="232.01" y="200.9" width="0.5" height="0.7" transform="translate(-59.11 214.51) rotate(-70.01)"/><rect class="cls-1" x="235.12" y="201.1" width="4.5" height="4" transform="translate(-57.48 220.52) rotate(-70.01)"/><rect class="cls-13" x="238.32" y="203.19" width="0.5" height="0.7" transform="translate(-57.11 221.94) rotate(-70.01)"/><rect class="cls-13" x="237.1" y="202.78" width="0.5" height="0.7" transform="translate(-57.54 220.52) rotate(-70.01)"/><rect class="cls-13" x="235.82" y="202.27" width="0.5" height="0.7" transform="translate(-57.89 218.99) rotate(-70.01)"/><rect class="cls-1" x="238.84" y="202.43" width="4.5" height="4" transform="translate(-56.29 224.89) rotate(-70.01)"/><rect class="cls-13" x="242.13" y="204.56" width="0.5" height="0.7" transform="translate(-55.89 226.42) rotate(-70.01)"/><rect class="cls-13" x="240.85" y="204.16" width="0.4" height="0.7" transform="translate(-56.4 224.91) rotate(-70.01)"/><rect class="cls-13" x="239.63" y="203.77" width="0.4" height="0.7" transform="translate(-56.83 223.51) rotate(-70.01)"/><path class="cls-1" d="M242.2,207.2c.7.2,1.2.5,1.9.7a16.55,16.55,0,0,0,2.1.6l1-4.4c-.6-.2-1.2-.3-1.7-.5s-1.2-.4-1.8-.7Z" transform="translate(-22.84 -136.2)"/><polygon class="cls-14" points="223.06 69.8 222.96 70.2 223.66 70.4 223.76 69.9 223.06 69.8"/><polygon class="cls-14" points="221.76 69.3 221.66 69.8 222.36 70 222.46 69.6 221.76 69.3"/><polygon class="cls-14" points="220.56 68.9 220.36 69.3 221.06 69.6 221.26 69.1 220.56 68.9"/><path class="cls-1" d="M246.3,208.6c1.4.3,2.9.5,4.3.7l.4-4.5a23.76,23.76,0,0,1-3.7-.6Z" transform="translate(-22.84 -136.2)"/><polygon class="cls-14" points="226.96 70.5 226.86 71 227.66 71.1 227.66 70.6 226.96 70.5"/><polygon class="cls-14" points="225.66 70.3 225.56 70.8 226.36 70.9 226.36 70.5 225.66 70.3"/><polygon class="cls-14" points="224.36 70.1 224.26 70.5 224.96 70.7 225.06 70.2 224.36 70.1"/><path class="cls-1" d="M250.6,209.3c1.4.1,2.8.2,4.3.2l-.1-4.5c-1.3,0-2.5,0-3.8-.1Z" transform="translate(-22.84 -136.2)"/><polygon class="cls-14" points="230.96 70.8 230.96 71.3 231.66 71.3 231.66 70.8 230.96 70.8"/><polygon class="cls-14" points="229.66 70.8 229.56 71.2 230.36 71.2 230.36 70.8 229.66 70.8"/><polygon class="cls-14" points="228.26 70.7 228.26 71.1 228.96 71.2 229.06 70.7 228.26 70.7"/><path class="cls-1" d="M254.9,209.4a32.19,32.19,0,0,0,4.3-.3l-.5-4.5a23.58,23.58,0,0,1-3.8.2Z" transform="translate(-22.84 -136.2)"/><polygon class="cls-14" points="234.96 70.7 234.96 71.1 235.76 71 235.66 70.6 234.96 70.7"/><polygon class="cls-14" points="233.66 70.8 233.66 71.2 234.36 71.2 234.36 70.7 233.66 70.8"/><polygon class="cls-14" points="232.26 70.8 232.26 71.3 233.06 71.2 233.06 70.8 232.26 70.8"/><path class="cls-1" d="M259.1,209.1a31,31,0,0,0,4.2-.8l-1.1-4.4c-1.2.3-2.4.5-3.7.7Z" transform="translate(-22.84 -136.2)"/><polygon class="cls-14" points="238.96 70.1 238.96 70.5 239.76 70.3 239.66 69.9 238.96 70.1"/><polygon class="cls-14" points="237.56 70.3 237.66 70.8 238.46 70.6 238.36 70.2 237.56 70.3"/><polygon class="cls-14" points="236.26 70.5 236.36 71 237.06 70.8 237.06 70.4 236.26 70.5"/><path class="cls-1" d="M263.4,208.4a39.29,39.29,0,0,0,4.1-1.4l-1.7-4.2a29.11,29.11,0,0,1-3.5,1.2Z" transform="translate(-22.84 -136.2)"/><polygon class="cls-14" points="242.76 68.9 242.86 69.3 243.56 69 243.46 68.6 242.76 68.9"/><polygon class="cls-14" points="241.46 69.4 241.66 69.8 242.36 69.5 242.16 69.1 241.46 69.4"/><polygon class="cls-14" points="240.26 69.7 240.36 70.2 241.06 70 240.96 69.5 240.26 69.7"/><rect class="cls-1" x="266.51" y="201.88" width="4" height="4.5" transform="translate(-79.55 -21.49) rotate(-21.87)"/><rect class="cls-13" x="269.38" y="203.39" width="0.7" height="0.5" transform="translate(-79.29 -21.06) rotate(-21.87)"/><rect class="cls-13" x="268.09" y="203.91" width="0.7" height="0.5" transform="translate(-79.57 -21.51) rotate(-21.87)"/><rect class="cls-13" x="266.87" y="204.39" width="0.7" height="0.4" transform="translate(-79.82 -21.93) rotate(-21.87)"/><rect class="cls-1" x="270.21" y="200.39" width="4" height="4.5" transform="translate(-78.73 -20.22) rotate(-21.87)"/><rect class="cls-13" x="273.1" y="201.93" width="0.7" height="0.5" transform="translate(-78.46 -19.83) rotate(-21.86)"/><rect class="cls-13" x="271.89" y="202.42" width="0.7" height="0.5" transform="translate(-78.73 -20.24) rotate(-21.86)"/><rect class="cls-13" x="270.57" y="202.9" width="0.7" height="0.4" transform="translate(-79 -20.66) rotate(-21.87)"/><rect class="cls-1" x="273.91" y="198.9" width="4" height="4.5" transform="translate(-77.91 -18.94) rotate(-21.87)"/><rect class="cls-13" x="276.78" y="200.43" width="0.7" height="0.5" transform="translate(-77.65 -18.52) rotate(-21.87)"/><rect class="cls-13" x="275.57" y="200.89" width="0.7" height="0.4" transform="translate(-77.89 -18.94) rotate(-21.87)"/><rect class="cls-13" x="274.38" y="201.39" width="0.7" height="0.5" transform="translate(-78.18 -19.35) rotate(-21.87)"/><rect class="cls-1" x="277.7" y="197.38" width="4" height="4.5" transform="translate(-77.07 -17.64) rotate(-21.87)"/><rect class="cls-13" x="280.6" y="199" width="0.7" height="0.4" transform="translate(-76.82 -17.21) rotate(-21.87)"/><rect class="cls-13" x="279.3" y="199.52" width="0.7" height="0.4" transform="translate(-77.11 -17.65) rotate(-21.87)"/><rect class="cls-13" x="278.08" y="199.9" width="0.7" height="0.5" transform="translate(-77.36 -18.08) rotate(-21.87)"/><rect class="cls-1" x="281.41" y="195.89" width="4" height="4.5" transform="translate(-76.25 -16.37) rotate(-21.87)"/><rect class="cls-13" x="284.31" y="197.53" width="0.7" height="0.4" transform="translate(-76 -15.97) rotate(-21.86)"/><rect class="cls-13" x="283.12" y="197.98" width="0.7" height="0.5" transform="translate(-76.28 -16.34) rotate(-21.87)"/><rect class="cls-13" x="281.77" y="198.4" width="0.7" height="0.4" transform="translate(-76.52 -16.81) rotate(-21.87)"/><rect class="cls-1" x="285.11" y="194.4" width="4" height="4.5" transform="translate(-75.43 -15.1) rotate(-21.87)"/><rect class="cls-13" x="288.04" y="196.04" width="0.7" height="0.5" transform="translate(-75.19 -14.69) rotate(-21.86)"/><rect class="cls-13" x="286.83" y="196.52" width="0.7" height="0.5" transform="translate(-75.46 -15.1) rotate(-21.86)"/><rect class="cls-13" x="285.6" y="196.99" width="0.7" height="0.4" transform="translate(-75.72 -15.49) rotate(-21.87)"/><rect class="cls-1" x="288.9" y="192.87" width="4" height="4.5" transform="translate(-74.59 -13.79) rotate(-21.87)"/><rect class="cls-13" x="291.81" y="194.49" width="0.7" height="0.5" transform="translate(-74.36 -13.35) rotate(-21.87)"/><rect class="cls-13" x="290.52" y="195.02" width="0.7" height="0.5" transform="translate(-74.64 -13.79) rotate(-21.87)"/><rect class="cls-13" x="289.32" y="195.49" width="0.7" height="0.5" transform="translate(-74.91 -14.21) rotate(-21.87)"/><rect class="cls-1" x="292.6" y="191.39" width="4" height="4.5" transform="translate(-73.77 -12.52) rotate(-21.87)"/><rect class="cls-13" x="295.5" y="192.99" width="0.7" height="0.4" transform="translate(-73.51 -12.09) rotate(-21.87)"/><rect class="cls-13" x="294.29" y="193.49" width="0.7" height="0.4" transform="translate(-73.79 -12.5) rotate(-21.87)"/><rect class="cls-13" x="293.03" y="194.03" width="0.7" height="0.5" transform="translate(-74.09 -12.97) rotate(-21.86)"/><rect class="cls-1" x="296.3" y="189.9" width="4" height="4.5" transform="translate(-72.95 -11.25) rotate(-21.87)"/><rect class="cls-13" x="299.22" y="191.54" width="0.7" height="0.4" transform="translate(-72.7 -10.85) rotate(-21.86)"/><rect class="cls-13" x="298.01" y="192.03" width="0.7" height="0.4" transform="translate(-72.96 -11.27) rotate(-21.86)"/><rect class="cls-13" x="296.8" y="192.47" width="0.7" height="0.4" transform="translate(-73.23 -11.64) rotate(-21.87)"/><rect class="cls-1" x="300.1" y="188.38" width="4" height="4.5" transform="translate(-72.11 -9.95) rotate(-21.87)"/><rect class="cls-13" x="303.01" y="189.99" width="0.7" height="0.5" transform="translate(-71.87 -9.5) rotate(-21.87)"/><rect class="cls-13" x="301.73" y="190.53" width="0.7" height="0.5" transform="translate(-72.16 -9.99) rotate(-21.86)"/><rect class="cls-13" x="300.5" y="191.01" width="0.7" height="0.4" transform="translate(-72.41 -10.37) rotate(-21.87)"/><rect class="cls-1" x="303.8" y="186.89" width="4" height="4.5" transform="translate(-71.29 -8.67) rotate(-21.87)"/><rect class="cls-13" x="306.71" y="188.51" width="0.7" height="0.5" transform="translate(-71.05 -8.23) rotate(-21.87)"/><rect class="cls-13" x="305.51" y="188.99" width="0.7" height="0.5" transform="translate(-71.32 -8.64) rotate(-21.87)"/><rect class="cls-13" x="304.22" y="189.51" width="0.7" height="0.5" transform="translate(-71.61 -9.09) rotate(-21.87)"/><rect class="cls-1" x="307.5" y="185.4" width="4" height="4.5" transform="translate(-70.47 -7.4) rotate(-21.87)"/><rect class="cls-13" x="310.41" y="187.04" width="0.7" height="0.4" transform="translate(-70.22 -7.01) rotate(-21.86)"/><rect class="cls-13" x="309.21" y="187.5" width="0.7" height="0.5" transform="translate(-70.5 -7.37) rotate(-21.87)"/><rect class="cls-13" x="308.03" y="188.01" width="0.7" height="0.5" transform="translate(-70.77 -7.82) rotate(-21.86)"/><rect class="cls-1" x="311.3" y="183.88" width="4" height="4.5" transform="translate(-69.63 -6.1) rotate(-21.87)"/><rect class="cls-13" x="314.21" y="185.49" width="0.7" height="0.5" transform="translate(-69.39 -5.65) rotate(-21.87)"/><rect class="cls-13" x="312.93" y="186.04" width="0.7" height="0.5" transform="translate(-69.68 -6.14) rotate(-21.86)"/><rect class="cls-13" x="311.71" y="186.5" width="0.7" height="0.5" transform="translate(-69.95 -6.51) rotate(-21.87)"/><rect class="cls-1" x="315" y="182.39" width="4" height="4.5" transform="translate(-68.8 -4.83) rotate(-21.87)"/><rect class="cls-13" x="317.91" y="184.01" width="0.7" height="0.5" transform="translate(-68.57 -4.38) rotate(-21.87)"/><rect class="cls-13" x="316.71" y="184.49" width="0.7" height="0.5" transform="translate(-68.84 -4.8) rotate(-21.87)"/><rect class="cls-13" x="315.4" y="185.02" width="0.7" height="0.4" transform="translate(-69.11 -5.25) rotate(-21.87)"/><rect class="cls-1" x="318.7" y="180.9" width="4" height="4.5" transform="translate(-67.99 -3.55) rotate(-21.87)"/><rect class="cls-13" x="321.6" y="182.5" width="0.7" height="0.4" transform="translate(-67.73 -3.12) rotate(-21.87)"/><rect class="cls-13" x="320.39" y="183.01" width="0.7" height="0.4" transform="translate(-68 -3.53) rotate(-21.87)"/><rect class="cls-13" x="319.21" y="183.51" width="0.7" height="0.4" transform="translate(-68.27 -3.99) rotate(-21.86)"/><rect class="cls-1" x="322.49" y="179.38" width="4" height="4.5" transform="translate(-67.14 -2.25) rotate(-21.87)"/><rect class="cls-13" x="325.41" y="181.02" width="0.7" height="0.4" transform="translate(-66.89 -1.86) rotate(-21.86)"/><rect class="cls-13" x="324.11" y="181.54" width="0.7" height="0.4" transform="translate(-67.18 -2.3) rotate(-21.86)"/><rect class="cls-13" x="322.91" y="181.98" width="0.7" height="0.5" transform="translate(-67.46 -2.67) rotate(-21.87)"/><rect class="cls-1" x="326.2" y="177.89" width="4" height="4.5" transform="translate(-66.32 -0.98) rotate(-21.87)"/><rect class="cls-13" x="329.11" y="179.5" width="0.7" height="0.5" transform="translate(-66.09 -0.54) rotate(-21.87)"/><rect class="cls-13" x="327.93" y="180.01" width="0.7" height="0.5" transform="translate(-66.36 -0.99) rotate(-21.86)"/><rect class="cls-13" x="326.59" y="180.52" width="0.7" height="0.4" transform="translate(-66.63 -1.4) rotate(-21.87)"/><rect class="cls-1" x="329.9" y="176.4" width="4" height="4.5" transform="translate(-65.5 0.29) rotate(-21.87)"/><rect class="cls-13" x="332.81" y="178.02" width="0.7" height="0.5" transform="translate(-65.27 0.74) rotate(-21.87)"/><rect class="cls-13" x="331.61" y="178.51" width="0.7" height="0.5" transform="translate(-65.54 0.32) rotate(-21.87)"/><rect class="cls-13" x="330.41" y="179.01" width="0.7" height="0.4" transform="translate(-65.79 -0.14) rotate(-21.86)"/><rect class="cls-1" x="333.69" y="174.88" width="4" height="4.5" transform="translate(-64.66 1.6) rotate(-21.87)"/><rect class="cls-13" x="336.59" y="176.48" width="0.7" height="0.4" transform="translate(-64.4 2.03) rotate(-21.87)"/><rect class="cls-13" x="335.29" y="177" width="0.7" height="0.4" transform="translate(-64.69 1.58) rotate(-21.87)"/><rect class="cls-13" x="334.13" y="177.52" width="0.7" height="0.5" transform="translate(-64.98 1.14) rotate(-21.86)"/><rect class="cls-1" x="337.39" y="173.39" width="4" height="4.5" transform="translate(-63.84 2.87) rotate(-21.87)"/><rect class="cls-13" x="340.31" y="175" width="0.7" height="0.5" transform="translate(-63.6 3.31) rotate(-21.87)"/><rect class="cls-13" x="339.11" y="175.51" width="0.7" height="0.4" transform="translate(-63.86 2.85) rotate(-21.86)"/><rect class="cls-13" x="337.81" y="176.02" width="0.7" height="0.5" transform="translate(-64.16 2.45) rotate(-21.87)"/><rect class="cls-1" x="341.1" y="171.9" width="4" height="4.5" transform="translate(-63.02 4.14) rotate(-21.87)"/><rect class="cls-13" x="344.01" y="173.52" width="0.7" height="0.5" transform="translate(-62.79 4.58) rotate(-21.87)"/><rect class="cls-13" x="342.81" y="174.01" width="0.7" height="0.5" transform="translate(-63.05 4.17) rotate(-21.87)"/><rect class="cls-13" x="341.59" y="174.49" width="0.7" height="0.4" transform="translate(-63.31 3.75) rotate(-21.87)"/><path class="cls-1" d="M345.8,175.5l.9-.4.7-.3c.1-.1.3-.2.4-.3l.3-.2a7.22,7.22,0,0,0,2-2.2l-4-2.1a4.3,4.3,0,0,1-.7.7l-.1.1h0l-.2.1-.9.4Z" transform="translate(-22.84 -136.2)"/><path class="cls-14" d="M347.4,171.8l.3.3a2.65,2.65,0,0,0,.5-.6l-.4-.2C347.8,171.5,347.6,171.6,347.4,171.8Z" transform="translate(-22.84 -136.2)"/><path class="cls-14" d="M346.4,172.6l.2.4c.2-.2.4-.3.6-.5l-.3-.3A1,1,0,0,1,346.4,172.6Z" transform="translate(-22.84 -136.2)"/><rect class="cls-13" x="345.31" y="173.03" width="0.7" height="0.4" transform="translate(-62.49 4.98) rotate(-21.86)"/><path class="cls-1" d="M350.2,172.1a4.44,4.44,0,0,0,.1-3.9,5.61,5.61,0,0,0-2.1-2.4l-2.6,3.6c.2.1.3.3.4.4l.1.1v.1h0Z" transform="translate(-22.84 -136.2)"/><path class="cls-14" d="M347.6,168.5l.3-.3a2.65,2.65,0,0,0-.6-.5l-.3.3C347.3,168.1,347.4,168.3,347.6,168.5Z" transform="translate(-22.84 -136.2)"/><path class="cls-14" d="M348.2,169.5l.4-.1c-.1-.3-.2-.5-.3-.8l-.4.2A1.33,1.33,0,0,1,348.2,169.5Z" transform="translate(-22.84 -136.2)"/><path class="cls-14" d="M348.1,170.8l.4.2a2.35,2.35,0,0,0,.2-.8h-.5C348.3,170.3,348.2,170.5,348.1,170.8Z" transform="translate(-22.84 -136.2)"/><path class="cls-1" d="M348.3,165.8a12,12,0,0,0-2.2-1.2c-.7-.3-1.5-.6-2.1-.8l-1.4,4.3a16.19,16.19,0,0,1,1.7.6,7.62,7.62,0,0,1,1.3.7Z" transform="translate(-22.84 -136.2)"/><polygon class="cls-14" points="321.36 30.3 321.56 29.9 320.86 29.6 320.66 30.1 321.36 30.3"/><path class="cls-14" d="M345.4,167l.2-.4c-.2-.1-.5-.2-.7-.3l-.2.4Z" transform="translate(-22.84 -136.2)"/><path class="cls-14" d="M346.6,167.6l.2-.4a4.35,4.35,0,0,0-.7-.4l-.2.4A5.74,5.74,0,0,0,346.6,167.6Z" transform="translate(-22.84 -136.2)"/><rect class="cls-1" x="339.16" y="163.41" width="4.5" height="4" transform="matrix(0.32, -0.95, 0.95, 0.32, 53.01, 300.14)"/><rect class="cls-13" x="339.86" y="164.5" width="0.5" height="0.7" transform="matrix(0.32, -0.95, 0.95, 0.32, 52.66, 298.52)"/><rect class="cls-13" x="341.12" y="164.89" width="0.5" height="0.7" transform="matrix(0.32, -0.95, 0.95, 0.32, 53.14, 299.97)"/><rect class="cls-13" x="342.47" y="165.45" width="0.4" height="0.7" transform="matrix(0.32, -0.95, 0.95, 0.32, 53.5, 301.58)"/><rect class="cls-1" x="335.34" y="162.11" width="4.5" height="4" transform="matrix(0.32, -0.95, 0.95, 0.32, 51.63, 295.62)"/><rect class="cls-13" x="336.04" y="163.2" width="0.5" height="0.7" transform="matrix(0.32, -0.95, 0.95, 0.32, 51.28, 294.01)"/><rect class="cls-13" x="337.28" y="163.59" width="0.5" height="0.7" transform="translate(51.78 295.48) rotate(-71.43)"/><rect class="cls-13" x="338.64" y="164.15" width="0.4" height="0.7" transform="matrix(0.32, -0.95, 0.95, 0.32, 52.12, 297.07)"/><rect class="cls-1" x="331.51" y="160.81" width="4.5" height="4" transform="matrix(0.32, -0.95, 0.95, 0.32, 50.26, 291.11)"/><rect class="cls-13" x="332.22" y="161.9" width="0.5" height="0.7" transform="matrix(0.32, -0.95, 0.95, 0.32, 49.9, 289.5)"/><rect class="cls-13" x="333.58" y="162.37" width="0.4" height="0.7" transform="translate(50.38 291.09) rotate(-71.43)"/><rect class="cls-13" x="334.79" y="162.8" width="0.5" height="0.7" transform="matrix(0.32, -0.95, 0.95, 0.32, 50.8, 292.55)"/><rect class="cls-1" x="327.68" y="159.51" width="4.5" height="4" transform="matrix(0.32, -0.95, 0.95, 0.32, 48.88, 286.6)"/><rect class="cls-13" x="328.5" y="160.68" width="0.4" height="0.7" transform="translate(48.52 285.12) rotate(-71.43)"/><rect class="cls-13" x="329.72" y="161.16" width="0.4" height="0.7" transform="translate(48.9 286.61) rotate(-71.43)"/><rect class="cls-13" x="330.96" y="161.5" width="0.5" height="0.7" transform="matrix(0.32, -0.95, 0.95, 0.32, 49.43, 288.04)"/><rect class="cls-1" x="323.86" y="158.21" width="4.5" height="4" transform="matrix(0.32, -0.95, 0.95, 0.32, 47.51, 282.08)"/><rect class="cls-13" x="324.67" y="159.38" width="0.4" height="0.7" transform="translate(47.15 280.6) rotate(-71.43)"/><rect class="cls-13" x="325.89" y="159.86" width="0.4" height="0.7" transform="translate(47.52 282.09) rotate(-71.43)"/><rect class="cls-13" x="327.16" y="160.25" width="0.4" height="0.7" transform="translate(48 283.53) rotate(-71.42)"/><rect class="cls-1" x="320.03" y="156.91" width="4.5" height="4" transform="matrix(0.32, -0.95, 0.95, 0.32, 46.13, 277.57)"/><rect class="cls-13" x="320.81" y="158.17" width="0.4" height="0.7" transform="translate(45.66 276.13) rotate(-71.43)"/><rect class="cls-13" x="322.08" y="158.56" width="0.4" height="0.7" transform="matrix(0.32, -0.95, 0.95, 0.32, 46.13, 277.57)"/><rect class="cls-13" x="323.32" y="158.95" width="0.4" height="0.7" transform="translate(46.64 279.03) rotate(-71.43)"/><rect class="cls-1" x="316.3" y="155.64" width="4.5" height="4" transform="matrix(0.32, -0.95, 0.95, 0.32, 44.79, 273.17)"/><rect class="cls-13" x="316.96" y="156.83" width="0.5" height="0.7" transform="translate(44.34 271.6) rotate(-71.43)"/><rect class="cls-13" x="318.22" y="157.21" width="0.5" height="0.7" transform="matrix(0.32, -0.95, 0.95, 0.32, 44.81, 273.04)"/><rect class="cls-13" x="319.59" y="157.68" width="0.4" height="0.7" transform="translate(45.29 274.63) rotate(-71.43)"/><rect class="cls-1" x="312.44" y="154.44" width="4.5" height="4" transform="matrix(0.32, -0.95, 0.95, 0.32, 43.3, 268.69)"/><rect class="cls-13" x="313.16" y="155.58" width="0.4" height="0.7" transform="translate(42.91 267.11) rotate(-71.43)"/><rect class="cls-13" x="314.49" y="155.95" width="0.5" height="0.7" transform="matrix(0.32, -0.95, 0.95, 0.32, 43.47, 268.65)"/><rect class="cls-13" x="315.76" y="156.38" width="0.4" height="0.7" transform="translate(43.92 270.11) rotate(-71.43)"/><rect class="cls-1" x="308.61" y="153.14" width="4.5" height="4" transform="matrix(0.32, -0.95, 0.95, 0.32, 41.93, 264.18)"/><rect class="cls-13" x="309.44" y="154.3" width="0.4" height="0.7" transform="translate(41.56 262.69) rotate(-71.42)"/><rect class="cls-13" x="310.7" y="154.69" width="0.4" height="0.7" transform="translate(42.04 264.14) rotate(-71.42)"/><rect class="cls-13" x="311.87" y="155.13" width="0.5" height="0.7" transform="translate(42.49 265.63) rotate(-71.43)"/><rect class="cls-1" x="304.79" y="151.84" width="4.5" height="4" transform="matrix(0.32, -0.95, 0.95, 0.32, 40.55, 259.66)"/><rect class="cls-13" x="305.62" y="153" width="0.4" height="0.7" transform="matrix(0.32, -0.95, 0.95, 0.32, 40.18, 258.18)"/><rect class="cls-13" x="306.87" y="153.39" width="0.4" height="0.7" transform="matrix(0.32, -0.95, 0.95, 0.32, 40.67, 259.63)"/><rect class="cls-13" x="308.08" y="153.87" width="0.4" height="0.7" transform="translate(41.06 261.12) rotate(-71.43)"/><rect class="cls-1" x="300.96" y="150.54" width="4.5" height="4" transform="matrix(0.32, -0.95, 0.95, 0.32, 39.18, 255.15)"/><rect class="cls-13" x="301.79" y="151.7" width="0.4" height="0.7" transform="translate(38.81 253.66) rotate(-71.42)"/><rect class="cls-13" x="303.01" y="152.19" width="0.4" height="0.7" transform="matrix(0.32, -0.95, 0.95, 0.32, 39.18, 255.15)"/><rect class="cls-13" x="304.26" y="152.57" width="0.4" height="0.7" transform="matrix(0.32, -0.95, 0.95, 0.32, 39.67, 256.6)"/><rect class="cls-1" x="297.23" y="149.27" width="4.5" height="4" transform="matrix(0.32, -0.95, 0.95, 0.32, 37.84, 250.75)"/><rect class="cls-13" x="297.93" y="150.36" width="0.5" height="0.7" transform="matrix(0.32, -0.95, 0.95, 0.32, 37.49, 249.13)"/><rect class="cls-13" x="299.17" y="150.89" width="0.4" height="0.7" transform="translate(37.82 250.65) rotate(-71.43)"/><rect class="cls-13" x="300.53" y="151.3" width="0.4" height="0.7" transform="translate(38.33 252.2) rotate(-71.42)"/><rect class="cls-1" x="293.4" y="147.97" width="4.5" height="4" transform="matrix(0.32, -0.95, 0.95, 0.32, 36.46, 246.23)"/><rect class="cls-13" x="294.08" y="149.16" width="0.5" height="0.7" transform="matrix(0.32, -0.95, 0.95, 0.32, 36, 244.66)"/><rect class="cls-13" x="295.41" y="149.58" width="0.5" height="0.7" transform="translate(36.53 246.24) rotate(-71.43)"/><rect class="cls-13" x="296.67" y="149.96" width="0.5" height="0.7" transform="matrix(0.32, -0.95, 0.95, 0.32, 37.01, 247.67)"/><rect class="cls-1" x="289.58" y="146.67" width="4.5" height="4" transform="matrix(0.32, -0.95, 0.95, 0.32, 35.09, 241.72)"/><rect class="cls-13" x="290.26" y="147.9" width="0.4" height="0.7" transform="translate(34.58 240.17) rotate(-71.43)"/><rect class="cls-13" x="291.62" y="148.32" width="0.4" height="0.7" transform="translate(35.1 241.74) rotate(-71.43)"/><rect class="cls-13" x="292.85" y="148.66" width="0.5" height="0.7" transform="matrix(0.32, -0.95, 0.95, 0.32, 35.63, 243.16)"/><rect class="cls-1" x="285.72" y="145.46" width="4.5" height="4" transform="matrix(0.32, -0.95, 0.95, 0.32, 33.6, 237.24)"/><rect class="cls-13" x="286.53" y="146.63" width="0.4" height="0.7" transform="translate(33.24 235.76) rotate(-71.43)"/><rect class="cls-13" x="287.79" y="147.02" width="0.4" height="0.7" transform="translate(33.73 237.22) rotate(-71.43)"/><rect class="cls-13" x="289.02" y="147.36" width="0.5" height="0.7" transform="matrix(0.32, -0.95, 0.95, 0.32, 34.26, 238.65)"/><rect class="cls-1" x="281.89" y="144.16" width="4.5" height="4" transform="matrix(0.32, -0.95, 0.95, 0.32, 32.23, 232.73)"/><rect class="cls-13" x="282.71" y="145.33" width="0.4" height="0.7" transform="translate(31.87 231.25) rotate(-71.43)"/><rect class="cls-13" x="283.96" y="145.72" width="0.4" height="0.7" transform="translate(32.35 232.71) rotate(-71.43)"/><rect class="cls-13" x="285.18" y="146.2" width="0.4" height="0.7" transform="translate(32.73 234.19) rotate(-71.43)"/><rect class="cls-1" x="278.06" y="142.86" width="4.5" height="4" transform="matrix(0.32, -0.95, 0.95, 0.32, 30.85, 228.22)"/><rect class="cls-13" x="278.88" y="144.03" width="0.4" height="0.7" transform="translate(30.49 226.74) rotate(-71.43)"/><rect class="cls-13" x="280.15" y="144.42" width="0.4" height="0.7" transform="matrix(0.32, -0.95, 0.95, 0.32, 30.96, 228.18)"/><rect class="cls-13" x="281.45" y="144.93" width="0.4" height="0.7" transform="translate(31.39 229.79) rotate(-71.43)"/><rect class="cls-1" x="274.33" y="141.6" width="4.5" height="4" transform="matrix(0.32, -0.95, 0.95, 0.32, 29.51, 223.81)"/><rect class="cls-13" x="275.02" y="142.69" width="0.5" height="0.7" transform="translate(29.17 222.22) rotate(-71.43)"/><rect class="cls-13" x="276.29" y="143.08" width="0.5" height="0.7" transform="matrix(0.32, -0.95, 0.95, 0.32, 29.64, 223.66)"/><rect class="cls-13" x="277.62" y="143.63" width="0.4" height="0.7" transform="translate(30.01 225.27) rotate(-71.43)"/><rect class="cls-1" x="270.51" y="140.3" width="4.5" height="4" transform="matrix(0.32, -0.95, 0.95, 0.32, 28.14, 219.3)"/><rect class="cls-13" x="271.21" y="141.39" width="0.5" height="0.7" transform="matrix(0.32, -0.95, 0.95, 0.32, 27.78, 217.69)"/><rect class="cls-13" x="272.53" y="141.9" width="0.5" height="0.7" transform="matrix(0.32, -0.95, 0.95, 0.32, 28.19, 219.29)"/><rect class="cls-13" x="273.8" y="142.33" width="0.4" height="0.7" transform="translate(28.64 220.76) rotate(-71.43)"/><rect class="cls-1" x="266.68" y="139" width="4.5" height="4" transform="matrix(0.32, -0.95, 0.95, 0.32, 26.76, 214.79)"/><rect class="cls-13" x="267.51" y="140.16" width="0.4" height="0.7" transform="translate(26.39 213.3) rotate(-71.42)"/><rect class="cls-13" x="268.73" y="140.64" width="0.4" height="0.7" transform="matrix(0.32, -0.95, 0.95, 0.32, 26.76, 214.79)"/><rect class="cls-13" x="269.97" y="141.03" width="0.4" height="0.7" transform="translate(27.26 216.26) rotate(-71.43)"/><path class="cls-1" d="M267.7,138.2c-.7-.2-1.2-.4-2-.6l-2.1-.6-.9,4.4a12.09,12.09,0,0,1,1.8.5c.5.2,1.2.4,1.9.6Z" transform="translate(-22.84 -136.2)"/><polygon class="cls-14" points="241.26 3.4 241.46 3 240.66 2.8 240.56 3.3 241.26 3.4"/><polygon class="cls-14" points="242.56 3.8 242.76 3.4 241.96 3.2 241.86 3.6 242.56 3.8"/><polygon class="cls-14" points="243.86 4.2 243.96 3.8 243.26 3.6 243.16 4 243.86 4.2"/><path class="cls-1" d="M263.6,137a30.34,30.34,0,0,0-4.2-.6l-.4,4.5a22,22,0,0,1,3.7.6Z" transform="translate(-22.84 -136.2)"/><polygon class="cls-14" points="237.36 2.7 237.46 2.3 236.66 2.2 236.66 2.6 237.36 2.7"/><polygon class="cls-14" points="238.66 2.9 238.76 2.5 238.06 2.3 237.96 2.8 238.66 2.9"/><polygon class="cls-14" points="239.96 3.1 240.06 2.7 239.36 2.6 239.26 3 239.96 3.1"/><path class="cls-1" d="M259.4,136.4c-1.4-.1-2.8-.2-4.2-.2v4.5c1.3,0,2.5.1,3.8.2Z" transform="translate(-22.84 -136.2)"/><polygon class="cls-14" points="233.36 2.4 233.36 2 232.66 2 232.66 2.4 233.36 2.4"/><polygon class="cls-14" points="234.66 2.5 234.76 2 233.96 2 233.96 2.5 234.66 2.5"/><polygon class="cls-14" points="236.06 2.6 236.06 2.1 235.36 2.1 235.26 2.5 236.06 2.6"/><path class="cls-1" d="M255.2,136.2c-1.4,0-2.8.1-4.2.2l.5,4.5c1.3-.1,2.5-.2,3.8-.2Z" transform="translate(-22.84 -136.2)"/><polygon class="cls-14" points="229.36 2.6 229.36 2.1 228.56 2.2 228.66 2.6 229.36 2.6"/><polygon class="cls-14" points="230.66 2.5 230.66 2 229.96 2.1 229.96 2.5 230.66 2.5"/><polygon class="cls-14" points="232.06 2.4 232.06 2 231.26 2 231.26 2.5 232.06 2.4"/><path class="cls-1" d="M250.9,136.4a30.67,30.67,0,0,0-4.2.7l1,4.4c1.2-.3,2.5-.4,3.7-.6Z" transform="translate(-22.84 -136.2)"/><polygon class="cls-14" points="225.36 3.1 225.36 2.6 224.56 2.8 224.66 3.2 225.36 3.1"/><polygon class="cls-14" points="226.66 2.8 226.66 2.4 225.86 2.5 225.96 3 226.66 2.8"/><polygon class="cls-14" points="228.06 2.7 227.96 2.2 227.26 2.3 227.26 2.8 228.06 2.7"/><path class="cls-1" d="M246.7,137.1a40,40,0,0,0-4.1,1.2l1.5,4.2a29.15,29.15,0,0,1,3.6-1.1Z" transform="translate(-22.84 -136.2)"/><rect class="cls-13" x="243.61" y="139.99" width="0.7" height="0.5" transform="translate(-55.71 -46.46) rotate(-19.55)"/><polygon class="cls-14" points="222.76 3.7 222.66 3.2 221.96 3.5 222.06 3.9 222.76 3.7"/><polygon class="cls-14" points="224.06 3.3 223.96 2.9 223.26 3.1 223.36 3.5 224.06 3.3"/><rect class="cls-1" x="239.4" y="138.9" width="4" height="4.5" transform="translate(-56.18 -47.17) rotate(-19.57)"/><rect class="cls-13" x="239.78" y="141.29" width="0.7" height="0.4" transform="translate(-56.37 -47.58) rotate(-19.57)"/><rect class="cls-13" x="241.02" y="140.91" width="0.7" height="0.5" transform="matrix(0.94, -0.34, 0.34, 0.94, -56.18, -47.18)"/><rect class="cls-13" x="242.28" y="140.41" width="0.7" height="0.4" transform="matrix(0.94, -0.34, 0.34, 0.94, -55.92, -46.79)"/><rect class="cls-1" x="235.62" y="140.3" width="4" height="4.5" transform="translate(-56.87 -48.36) rotate(-19.57)"/><rect class="cls-13" x="236.02" y="142.69" width="0.7" height="0.5" transform="translate(-57.07 -48.76) rotate(-19.57)"/><rect class="cls-13" x="237.28" y="142.19" width="0.7" height="0.4" transform="translate(-56.81 -48.36) rotate(-19.57)"/><rect class="cls-13" x="238.5" y="141.8" width="0.7" height="0.4" transform="translate(-56.61 -47.98) rotate(-19.57)"/><rect class="cls-1" x="231.8" y="141.61" width="4" height="4.5" transform="translate(-57.52 -49.56) rotate(-19.57)"/><rect class="cls-13" x="232.2" y="144" width="0.7" height="0.5" transform="translate(-57.73 -49.96) rotate(-19.57)"/><rect class="cls-13" x="233.5" y="143.59" width="0.7" height="0.4" transform="matrix(0.94, -0.34, 0.34, 0.94, -57.5, -49.55)"/><rect class="cls-13" x="234.69" y="143.11" width="0.7" height="0.4" transform="translate(-57.27 -49.18) rotate(-19.57)"/><rect class="cls-1" x="228.08" y="142.88" width="4" height="4.5" transform="translate(-58.16 -50.74) rotate(-19.57)"/><rect class="cls-13" x="228.42" y="145.4" width="0.7" height="0.5" transform="translate(-58.41 -51.14) rotate(-19.57)"/><rect class="cls-13" x="229.68" y="144.9" width="0.7" height="0.4" transform="translate(-58.16 -50.75) rotate(-19.57)"/><rect class="cls-13" x="230.9" y="144.51" width="0.7" height="0.4" transform="translate(-57.96 -50.37) rotate(-19.57)"/><rect class="cls-1" x="224.3" y="144.28" width="4" height="4.5" transform="translate(-58.85 -51.92) rotate(-19.57)"/><rect class="cls-13" x="224.61" y="146.7" width="0.7" height="0.5" transform="translate(-59.07 -52.35) rotate(-19.57)"/><rect class="cls-13" x="225.9" y="146.29" width="0.7" height="0.4" transform="translate(-58.84 -51.94) rotate(-19.57)"/><rect class="cls-13" x="227.11" y="145.81" width="0.7" height="0.5" transform="translate(-58.63 -51.56) rotate(-19.57)"/><rect class="cls-1" x="220.48" y="145.59" width="4" height="4.5" transform="translate(-59.51 -53.12) rotate(-19.57)"/><rect class="cls-13" x="220.82" y="148.1" width="0.7" height="0.5" transform="matrix(0.94, -0.34, 0.34, 0.94, -59.76, -53.53)"/><rect class="cls-13" x="222.09" y="147.6" width="0.7" height="0.4" transform="translate(-59.5 -53.14) rotate(-19.57)"/><rect class="cls-13" x="223.32" y="147.21" width="0.7" height="0.5" transform="translate(-59.32 -52.75) rotate(-19.57)"/><rect class="cls-1" x="216.7" y="146.99" width="4" height="4.5" transform="translate(-60.2 -54.31) rotate(-19.57)"/><rect class="cls-13" x="216.99" y="149.42" width="0.7" height="0.4" transform="matrix(0.94, -0.34, 0.34, 0.94, -60.4, -54.74)"/><rect class="cls-13" x="218.32" y="148.99" width="0.7" height="0.5" transform="matrix(0.94, -0.34, 0.34, 0.94, -60.2, -54.32)"/><rect class="cls-13" x="219.6" y="148.48" width="0.7" height="0.5" transform="translate(-59.96 -53.92) rotate(-19.57)"/><rect class="cls-1" x="212.89" y="148.29" width="4" height="4.5" transform="translate(-60.86 -55.51) rotate(-19.57)"/><rect class="cls-13" x="213.21" y="150.82" width="0.7" height="0.4" transform="translate(-61.09 -55.93) rotate(-19.57)"/><rect class="cls-13" x="214.51" y="150.3" width="0.7" height="0.5" transform="translate(-60.86 -55.52) rotate(-19.57)"/><rect class="cls-13" x="215.82" y="149.88" width="0.7" height="0.5" transform="matrix(0.94, -0.34, 0.34, 0.94, -60.64, -55.11)"/><rect class="cls-1" x="209.1" y="149.69" width="4" height="4.5" transform="translate(-61.54 -56.7) rotate(-19.57)"/><rect class="cls-13" x="209.49" y="152.08" width="0.7" height="0.4" transform="matrix(0.94, -0.34, 0.34, 0.94, -61.73, -57.1)"/><rect class="cls-13" x="210.73" y="151.7" width="0.7" height="0.5" transform="translate(-61.55 -56.71) rotate(-19.57)"/><rect class="cls-13" x="211.99" y="151.2" width="0.7" height="0.4" transform="translate(-61.29 -56.32) rotate(-19.57)"/><rect class="cls-1" x="205.29" y="151" width="4" height="4.5" transform="translate(-62.2 -57.9) rotate(-19.57)"/><rect class="cls-13" x="205.66" y="153.4" width="0.7" height="0.4" transform="translate(-62.39 -58.33) rotate(-19.57)"/><rect class="cls-13" x="206.91" y="153.01" width="0.7" height="0.5" transform="translate(-62.21 -57.91) rotate(-19.57)"/><rect class="cls-13" x="208.2" y="152.6" width="0.7" height="0.4" transform="translate(-61.98 -57.5) rotate(-19.57)"/><rect class="cls-1" x="201.51" y="152.4" width="4" height="4.5" transform="translate(-62.89 -59.09) rotate(-19.57)"/><rect class="cls-13" x="201.9" y="154.8" width="0.7" height="0.5" transform="translate(-63.09 -59.51) rotate(-19.57)"/><rect class="cls-13" x="203.08" y="154.32" width="0.7" height="0.4" transform="translate(-62.85 -59.12) rotate(-19.57)"/><rect class="cls-13" x="204.38" y="153.91" width="0.7" height="0.4" transform="translate(-62.63 -58.73) rotate(-19.57)"/><rect class="cls-1" x="197.69" y="153.71" width="4" height="4.5" transform="translate(-63.55 -60.29) rotate(-19.57)"/><rect class="cls-13" x="198.08" y="156.11" width="0.7" height="0.5" transform="translate(-63.75 -60.71) rotate(-19.57)"/><rect class="cls-13" x="199.3" y="155.71" width="0.7" height="0.4" transform="translate(-63.54 -60.31) rotate(-19.57)"/><rect class="cls-13" x="200.56" y="155.22" width="0.7" height="0.4" transform="translate(-63.29 -59.94) rotate(-19.57)"/><rect class="cls-1" x="193.91" y="155.1" width="4" height="4.5" transform="translate(-64.23 -61.48) rotate(-19.57)"/><rect class="cls-13" x="194.3" y="157.51" width="0.7" height="0.5" transform="translate(-64.43 -61.9) rotate(-19.57)"/><rect class="cls-13" x="195.58" y="157" width="0.7" height="0.5" transform="translate(-64.19 -61.5) rotate(-19.57)"/><rect class="cls-13" x="196.8" y="156.61" width="0.7" height="0.5" transform="translate(-63.99 -61.11) rotate(-19.57)"/><rect class="cls-1" x="190.09" y="156.41" width="4" height="4.5" transform="translate(-64.89 -62.68) rotate(-19.57)"/><rect class="cls-13" x="190.48" y="158.81" width="0.7" height="0.5" transform="translate(-65.09 -63.1) rotate(-19.57)"/><rect class="cls-13" x="191.78" y="158.4" width="0.7" height="0.4" transform="translate(-64.86 -62.69) rotate(-19.57)"/><rect class="cls-13" x="192.98" y="157.92" width="0.7" height="0.5" transform="translate(-64.65 -62.32) rotate(-19.57)"/><rect class="cls-1" x="186.41" y="157.78" width="4" height="4.5" transform="translate(-65.56 -63.84) rotate(-19.57)"/><rect class="cls-13" x="186.7" y="160.2" width="0.7" height="0.4" transform="translate(-65.77 -64.27) rotate(-19.57)"/><rect class="cls-13" x="187.98" y="159.7" width="0.7" height="0.5" transform="translate(-65.53 -63.89) rotate(-19.57)"/><rect class="cls-13" x="189.2" y="159.32" width="0.7" height="0.5" transform="translate(-65.34 -63.5) rotate(-19.57)"/><rect class="cls-1" x="182.59" y="159.08" width="4" height="4.5" transform="translate(-66.22 -65.04) rotate(-19.57)"/><rect class="cls-13" x="182.88" y="161.51" width="0.7" height="0.4" transform="translate(-66.42 -65.47) rotate(-19.57)"/><rect class="cls-13" x="184.2" y="161.1" width="0.7" height="0.5" transform="translate(-66.22 -65.07) rotate(-19.57)"/><rect class="cls-13" x="185.38" y="160.62" width="0.7" height="0.5" transform="translate(-65.99 -64.7) rotate(-19.57)"/><rect class="cls-1" x="178.81" y="160.48" width="4" height="4.5" transform="translate(-66.91 -66.22) rotate(-19.57)"/><rect class="cls-13" x="179.1" y="162.91" width="0.7" height="0.4" transform="translate(-67.11 -66.66) rotate(-19.57)"/><rect class="cls-13" x="180.38" y="162.41" width="0.7" height="0.5" transform="translate(-66.88 -66.28) rotate(-19.57)"/><rect class="cls-13" x="181.6" y="162.01" width="0.7" height="0.4" transform="translate(-66.67 -65.87) rotate(-19.57)"/><rect class="cls-1" x="174.99" y="161.79" width="4" height="4.5" transform="translate(-67.57 -67.43) rotate(-19.57)"/><rect class="cls-13" x="175.28" y="164.21" width="0.7" height="0.4" transform="translate(-67.77 -67.86) rotate(-19.57)"/><rect class="cls-13" x="176.62" y="163.8" width="0.7" height="0.5" transform="translate(-67.57 -67.44) rotate(-19.57)"/><rect class="cls-13" x="177.9" y="163.28" width="0.7" height="0.5" transform="translate(-67.33 -67.04) rotate(-19.57)"/><rect class="cls-1" x="171.21" y="163.19" width="4" height="4.5" transform="translate(-68.25 -68.61) rotate(-19.57)"/><rect class="cls-13" x="171.52" y="165.61" width="0.7" height="0.5" transform="matrix(0.94, -0.34, 0.34, 0.94, -68.47, -69.04)"/><rect class="cls-13" x="172.78" y="165.11" width="0.7" height="0.4" transform="matrix(0.94, -0.34, 0.34, 0.94, -68.22, -68.65)"/><rect class="cls-13" x="174.1" y="164.69" width="0.7" height="0.4" transform="translate(-68 -68.23) rotate(-19.57)"/><rect class="cls-1" x="167.4" y="164.49" width="4" height="4.5" transform="translate(-68.91 -69.82) rotate(-19.57)"/><rect class="cls-13" x="167.8" y="166.88" width="0.7" height="0.5" transform="matrix(0.94, -0.34, 0.34, 0.94, -69.11, -70.21)"/><rect class="cls-13" x="169" y="166.5" width="0.7" height="0.4" transform="matrix(0.94, -0.34, 0.34, 0.94, -68.9, -69.83)"/><rect class="cls-13" x="170.3" y="165.99" width="0.7" height="0.5" transform="matrix(0.94, -0.34, 0.34, 0.94, -68.67, -69.43)"/><polygon class="cls-1" points="143.96 29.1 140.16 30.5 141.66 34.7 145.46 33.4 143.96 29.1"/><polygon class="cls-14" points="141.96 32.4 141.76 32 141.06 32.2 141.26 32.6 141.96 32.4"/><polygon class="cls-14" points="143.16 31.9 143.06 31.5 142.36 31.8 142.46 32.2 143.16 31.9"/><polygon class="cls-14" points="144.46 31.5 144.26 31.1 143.56 31.3 143.76 31.7 144.46 31.5"/><path class="cls-1" d="M163,166.7a10.7,10.7,0,0,0-4.3,2.5l3.2,3.2a7.43,7.43,0,0,1,2.7-1.4Z" transform="translate(-22.84 -136.2)"/><path class="cls-14" d="M161.1,170.2l-.3-.4c-.2.2-.4.3-.6.5l.3.3C160.7,170.5,160.9,170.3,161.1,170.2Z" transform="translate(-22.84 -136.2)"/><path class="cls-14" d="M162.3,169.6l-.2-.4a2.51,2.51,0,0,0-.7.4l.2.4A1.27,1.27,0,0,1,162.3,169.6Z" transform="translate(-22.84 -136.2)"/><polygon class="cls-14" points="140.66 32.8 140.46 32.4 139.76 32.7 139.96 33.1 140.66 32.8"/><path class="cls-1" d="M158.7,169.1a5,5,0,0,0-1.6,3.3,4.9,4.9,0,0,0,1.5,3.4l3.3-3.1c-.3-.3-.1-.2-.2-.2l.2-.2Z" transform="translate(-22.84 -136.2)"/><path class="cls-14" d="M159.7,173.3l-.4.2c.1.2.3.5.4.7l.3-.3C160,173.7,159.8,173.5,159.7,173.3Z" transform="translate(-22.84 -136.2)"/><polygon class="cls-14" points="136.76 35.9 136.26 35.8 136.26 36.3 136.26 36.7 136.76 36.6 136.66 36.3 136.76 35.9"/><path class="cls-14" d="M160.1,171l-.3-.3a4.23,4.23,0,0,0-.5.7l.4.2A2.09,2.09,0,0,0,160.1,171Z" transform="translate(-22.84 -136.2)"/><path class="cls-1" d="M158.6,175.8a12.38,12.38,0,0,0,4.3,2.6l1.6-4.2a7.74,7.74,0,0,1-2.6-1.5Z" transform="translate(-22.84 -136.2)"/><polygon class="cls-14" points="139.86 39.5 139.66 39.9 140.46 40.2 140.56 39.8 139.86 39.5"/><path class="cls-14" d="M161.6,175.1l-.2.4a4.35,4.35,0,0,0,.7.4l.2-.4A5.74,5.74,0,0,0,161.6,175.1Z" transform="translate(-22.84 -136.2)"/><polygon class="cls-14" points="137.66 38.1 137.36 38.5 137.96 39 138.26 38.6 137.66 38.1"/><path class="cls-15" d="M163.6,175.7l80.9,29.4c5.7,2.1,15.1,1.9,20.7-.3l81.2-32.6c3.3-2.1,2.6-4.9-2.4-6.6l-78.5-26.4c-5.8-1.9-15.3-1.9-21,.2l-80.7,28.7c-5.9,2.1-5.9,5.5-.2,7.6Z" transform="translate(-22.84 -136.2)"/></g></svg>